<?xml version="1.0" encoding="utf-8"?>
<!-- Generator: Adobe Illustrator 16.0.0, SVG Export Plug-In . SVG Version: 6.00 Build 0)  -->
<!DOCTYPE svg PUBLIC "-//W3C//DTD SVG 1.1 Basic//EN" "http://www.w3.org/Graphics/SVG/1.1/DTD/svg11-basic.dtd">
<svg version="1.1" baseProfile="basic" id="Layer_1"
	 xmlns="http://www.w3.org/2000/svg" xmlns:xlink="http://www.w3.org/1999/xlink" x="0px" y="0px" width="2000px" height="1235px"
	 viewBox="0 0 2000 1235" xml:space="preserve">
<g>
	<defs>
		<rect id="SVGID_1_" width="2000" height="1235"/>
	</defs>
	<clipPath id="SVGID_2_">
		<use xlink:href="#SVGID_1_"  overflow="visible"/>
	</clipPath>
	<path clip-path="url(#SVGID_2_)" fill="#919191" d="M828.042,732.179c-17.166,24.187-46.412,36.999-75.441,36.505
		c7.4,1.22,14.999,1.338,22.506,0.387c26.248-3.328,52.116-21.018,61.783-46.238c1.246-3.252,2.19-6.659,2.809-10.133
		C836.677,719.772,832.429,726.442,828.042,732.179"/>
	<path clip-path="url(#SVGID_2_)" fill="#AAA7A7" d="M828.042,732.179c4.387-5.736,8.635-12.406,11.657-19.479
		c1.73-9.725,0.85-19.979-3.575-28.872c-2.79-5.61-7.502-9.948-12.959-12.923c-6.16-3.358-12.906-4.345-19.631-5.986
		c-5.502-1.342-11.042-4.597-14.944-8.704c-3.194-3.362-6.375-8.535-11.286-9.457c-12.332-2.317-11.99,16.6-13.329,24.124
		c-0.579,3.256-5.532,1.868-4.956-1.366c1.661-9.338,1.353-22.951,11.72-27.041c-17.544-29.366-61.363-39.475-92.274-27.939
		c0.214,2.186-2.517,4.239-4.271,2.181c-15.235-17.877-3.208-45.462,10.002-60.84c15.225-17.723,38.675-27.684,62.02-24.412
		c11.372,1.594,22.052,5.991,32.283,11.046c10.236,5.056,21.153,10.069,32.822,9.958c11.616-0.11,22.164-6.684,27.592-16.939
		c4.428-8.367,4.647-18.333,2.129-27.317c-5.288-18.866-22.565-32.779-39.542-41.073c-17.701-8.647-37.748-11.677-57.308-10.642
		c-39.821,2.107-81.002,20.735-103.876,54.249c-11.288,16.539-18.106,36.138-18.463,56.226c-0.42,23.599,8.3,44.962,22.965,63.159
		c1.516,1.882-0.048,4.349-1.807,4.492c-12.77,27.842-10.763,59.591,6.843,86.419c13.453,18.992,30.569,31.39,51.332,37.225
		c0.041,0.006,0.081,0.014,0.122,0.02c0.295,0.043,0.539,0.132,0.759,0.24c1.426,0.386,2.868,0.741,4.328,1.066
		c-1.46-0.325-2.902-0.681-4.328-1.066c1.169,0.572,1.34,1.952,0.804,3.084c15.616,8.011,32.7,28.902,49.784,14.259
		c0.584-0.292,0.763-0.987,0.686-1.873c-9.469-1.37-18.682-4.418-27.049-9.257c-2.866-1.657-0.274-6.097,2.594-4.438
		c6.934,4.01,14.462,6.696,22.235,8.139c-0.06-0.094-0.12-0.19-0.18-0.28c0.06,0.09,0.12,0.187,0.18,0.28
		c0.491,0.092,0.986,0.163,1.48,0.244C781.63,769.178,810.876,756.365,828.042,732.179"/>
	<path clip-path="url(#SVGID_2_)" fill="#919191" d="M649.854,721.042c-17.606-26.828-19.613-58.577-6.843-86.419
		c-0.463,0.037-0.938-0.077-1.375-0.416c-8.852,8.34-13.31,19.959-14.673,31.894c-2.466,21.594,3.695,43.93,17.53,60.76
		c14.166,17.232,34.712,28.219,56.693,31.406C680.423,752.432,663.307,740.034,649.854,721.042"/>
	<path clip-path="url(#SVGID_2_)" fill="#919191" d="M752.655,775.869c-17.084,14.644-34.167-6.248-49.784-14.259
		c-0.004,0.007-0.005,0.015-0.009,0.022c9.242,5.299,17.268,12.399,25.974,18.646c5.716,4.1,12.204,7.781,19.366,8.306
		c4.161,0.304,9.491-0.238,12.006-4.086c2.313-3.54,0.368-7.396-2.329-9.971c-1.518-0.134-3.031-0.313-4.537-0.531
		C753.419,774.882,753.239,775.577,752.655,775.869"/>
	<path clip-path="url(#SVGID_2_)" fill="#3F3D42" d="M776.063,657.048c0-0.002,0.002-0.005,0.002-0.008
		c-0.019,0.021-0.036,0.037-0.044,0.045C776.039,657.069,776.047,657.062,776.063,657.048"/>
	<path clip-path="url(#SVGID_2_)" fill="#48444F" d="M755.021,746.295c3.271-0.277,3.301-5.42,0-5.14
		c-5.521,0.468-11.012,0.409-16.521-0.178c-3.286-0.35-3.261,4.793,0,5.141C744.008,746.704,749.5,746.764,755.021,746.295"/>
	<path clip-path="url(#SVGID_2_)" fill="#48444F" d="M756.834,748.972c-2.5,2.531-5.425,4.526-8.756,5.805
		c-3.057,1.174-1.729,6.145,1.367,4.957c4.174-1.603,7.875-3.939,11.024-7.128C762.795,750.25,759.164,746.613,756.834,748.972"/>
	<path clip-path="url(#SVGID_2_)" fill="#48444F" d="M815.679,712.609c0.72,2.111-0.357,4.434-2.908,3.979
		c-1.537-0.275-3.356,0.676-3.253,2.478c0.138,2.417-1.549,4.214-3.988,4.125c-3.309-0.119-3.304,5.021,0,5.141
		c4.243,0.153,7.933-2.817,8.892-6.767c4.659-0.756,7.954-5.215,6.214-10.321C819.574,708.131,814.608,709.467,815.679,712.609"/>
	<path clip-path="url(#SVGID_2_)" fill="#48444F" d="M786.065,731.322c-3.785,0-6.854,3.068-6.854,6.854
		c0,3.784,3.069,6.853,6.854,6.853c3.785,0,6.854-3.068,6.854-6.853C792.919,734.391,789.85,731.322,786.065,731.322"/>
	<path clip-path="url(#SVGID_2_)" fill="#FFFFFF" d="M786.672,733.86c-1.376,0-2.493,1.116-2.493,2.493
		c0,1.376,1.117,2.492,2.493,2.492s2.493-1.116,2.493-2.492C789.166,734.977,788.048,733.86,786.672,733.86"/>
	<path clip-path="url(#SVGID_2_)" fill="#48444F" d="M827.185,692.771c-3.312,0-5.997,2.686-5.997,5.997s2.685,5.997,5.997,5.997
		s5.997-2.686,5.997-5.997S830.497,692.771,827.185,692.771"/>
	<path clip-path="url(#SVGID_2_)" fill="#919191" d="M734.984,710.622c-3.5-1.378-2.151-12.497,1.542-13.977
		c2.79-1.117,7.791-0.196,8.374,3.413c0.608,3.766-5.088,9.694-8.417,10.599C735.908,710.813,735.41,710.79,734.984,710.622"/>
	<path clip-path="url(#SVGID_2_)" fill="#48444F" d="M737.04,704.739c1.063-0.345,2.097-1.542,1.904-2.743
		c1.088,0.41,2.552-0.156,3.08-1.156c0.706-1.337,0.241-2.665-0.922-3.517c-1.66-1.213-4.076-1.038-5.661,0.188
		c-1.568,1.211-2.347,3.554-1.563,5.434C734.394,704.18,735.603,705.204,737.04,704.739"/>
	<path clip-path="url(#SVGID_2_)" fill="#48444F" d="M776.594,651.664c-3.642-0.223-6.435,3.563-5.555,6.98
		c0.335,1.303,1.856,2.218,3.162,1.796c1.343-0.436,2.153-1.767,1.795-3.162c-0.004-0.017-0.006-0.023-0.009-0.037
		c0.002-0.009,0.003-0.011,0.005-0.021c-0.003-0.009-0.002-0.016-0.004-0.023c0.119-0.175,0.364-0.404,0.074-0.149
		c-0.008,0.032-0.03,0.079-0.075,0.147c-0.001-0.003-0.001-0.006-0.002-0.009l0.008-0.123c0.03-0.072,0.09-0.096,0.072-0.022
		c0.021-0.022,0.047-0.05,0.074-0.078c0.026-0.017,0.063-0.043,0.103-0.072c-0.035,0.023-0.056,0.033-0.067,0.033
		c0.095-0.104,0.166-0.188,0.017-0.044c0.019-0.025,0.043-0.054,0.083-0.082c0.028-0.001,0.057,0.001,0.085,0.001
		c-0.011,0.009-0.02,0.016-0.029,0.023c0.01-0.008,0.021-0.016,0.029-0.023c0.078,0.001,0.156-0.003,0.234,0.005
		c1.344,0.083,2.63-1.24,2.57-2.569C779.099,652.771,778.034,651.752,776.594,651.664 M776.395,656.771
		c0.003-0.003,0.008-0.007,0.011-0.009C776.401,656.767,776.399,656.768,776.395,656.771c-0.033,0.004-0.066,0.009-0.099,0.013
		c0.07-0.046,0.152-0.074,0.212-0.027C776.471,656.762,776.433,656.767,776.395,656.771"/>
	<path clip-path="url(#SVGID_2_)" fill="#919191" d="M670.414,583.975c0.932-6.356,3.324-17.015,10.28-28.27
		c9.392-15.195,21.609-22.587,23.987-23.987c19.596-11.531,42.457-11.129,58.254-5.997c8.104,2.633,20.116,8.384,22.273,9.424
		c12.763,6.152,15.998,9.074,23.13,10.28c3.756,0.635,15.249,2.531,24.844-4.283c13.574-9.642,12.107-28.756,11.993-29.984
		c1.03,2.944,4.594,14.249-0.857,25.7c-6.464,13.579-21.457,18.651-31.696,18.847c-7.313,0.14-14.014-2.762-27.414-8.567
		c-11.889-5.15-12.358-7.033-20.56-9.423c-10.288-2.998-18.897-2.759-25.7-2.57c-9.356,0.26-18.405,1.774-23.987,3.426
		C688.011,546.546,672.894,578.552,670.414,583.975"/>
	<path clip-path="url(#SVGID_2_)" fill="#919191" d="M725.587,694.293c-0.742,0.018-1.759,4.302-3.793,12.871
		c-2.56,10.785-2.914,14.891-0.463,18.475c0.243,0.356,2.362,3.396,4.088,3.029c1.685-0.357,2.168-3.783,2.407-6.057
		C728.932,712.135,728.224,694.231,725.587,694.293"/>
	<path clip-path="url(#SVGID_2_)" fill="#48444F" d="M734.008,690.896c4.804-1.608,9.982,2.661,13.923,4.952
		c2.865,1.666,5.456-2.774,2.594-4.438c-4.575-2.659-9.575-6.379-15.149-6.059c-4.42,0.253-8.224,3.186-10.036,7.122
		c-1.876,4.075-1.813,8.868-1.992,13.259c-0.272,6.636,0.048,13.252,0.832,19.844c0.386,3.245,5.531,3.284,5.14,0
		c-1.002-8.419-1.296-16.993-0.535-25.448C729.118,696.425,730.034,692.225,734.008,690.896"/>
	<path clip-path="url(#SVGID_2_)" fill="#919191" d="M772.268,642.887c-4.334-2.944-9.441,4.941-11.31,7.753
		c-2.915,4.386-4.899,10.492-5.735,15.637c-0.341,2.101-0.926,5.559,0.94,7.182c3.754,3.268,5.176-1.724,5.747-4.725
		c0.98-5.155,1.407-10.44,3.153-15.438C765.472,652.126,771.092,642.085,772.268,642.887"/>
	<path clip-path="url(#SVGID_2_)" fill="#FFDEDE" d="M786.921,753.167c0,4.495-3.644,8.139-8.138,8.139
		c-4.495,0-8.138-3.644-8.138-8.139c0-4.494,3.643-8.138,8.138-8.138C783.277,745.029,786.921,748.673,786.921,753.167"/>
	<path clip-path="url(#SVGID_2_)" fill="#FFDEDE" d="M842.332,691.094c-4.166,0.356-7.437,3.846-7.437,8.104
		c0,4.493,3.644,8.137,8.139,8.137c0.304,0,0.603-0.02,0.899-0.052C843.979,701.887,843.565,696.49,842.332,691.094"/>
	<path clip-path="url(#SVGID_2_)" fill="#48444F" d="M846.718,672.963c-2.453,1.681-4.907,3.362-7.36,5.044
		c-0.178,0.122-0.332,0.258-0.466,0.4c-0.19-0.297-0.384-0.59-0.583-0.878c2.477-5.848,3.524-11.923,2.803-18.258
		c-0.37-3.248-5.514-3.285-5.14,0c0.534,4.695,0.145,9.332-1.374,13.763c0.236-0.689-4.741-4.035-5.37-4.464
		c-1.997-1.362-4.12-2.535-6.318-3.54c-4.766-2.177-9.891-3.607-15.062-4.407c-8.888-1.374-14.659-6.931-20.666-13.156
		c-3.145-3.26-6.746-5.82-11.067-5.981c-8.648-15.7-23.822-26.09-40.622-31.593c-18.877-6.184-40.917-7.256-59.579,0.121
		c-0.076,0.03-0.138,0.072-0.209,0.107c-5.511-9.199-3.377-21.051,0.277-30.735c3.824-10.135,10.262-19.227,18.287-26.468
		c8.244-7.439,18.292-12.849,29.113-15.396c12.846-3.023,25.833-1.313,38.122,3.138c20.561,7.446,42.211,24.212,64.895,13.633
		c18.662-8.702,25.051-30.355,19.105-49.085c-5.911-18.622-22.474-32.738-39.354-41.472c-17.414-9.011-37.152-12.854-56.677-12.557
		c-40.673,0.617-83.419,18.088-108.872,50.541c-26.082,33.256-31.881,79.072-10.66,116.308c2.49,4.367,5.372,8.312,8.428,12.207
		c-0.032,0.027-0.065,0.045-0.097,0.074c-16.817,15.552-19.34,41.114-15.248,62.494c4.474,23.38,19.059,43.532,38.969,56.339
		c8.942,5.753,18.833,9.928,29.15,12.408c0.237,0.211,0.518,0.393,0.861,0.521c9.31,3.494,18.202,9.783,25.844,16.037
		c6.726,5.503,13.587,11.02,21.911,13.898c7.127,2.465,16.875,3.132,22.802-2.428c4.436-4.16,4.572-9.983,1.994-14.738
		c17.977,0.117,36.053-5.577,50.354-16.523c22.592-17.295,38.708-46.24,26.727-74.706c-0.12-0.283-0.249-0.556-0.375-0.833
		c0.228-0.073,0.458-0.174,0.691-0.332c2.454-1.682,4.907-3.362,7.36-5.044C852.024,675.543,849.455,671.087,846.718,672.963
		 M836.89,722.832c-9.667,25.221-35.536,42.91-61.783,46.238c-15.923,2.019-32.273-0.703-46.221-8.77
		c-2.869-1.658-5.46,2.781-2.594,4.438c9.699,5.608,20.533,8.817,31.586,9.788c2.698,2.574,4.644,6.431,2.33,9.971
		c-2.515,3.848-7.845,4.39-12.006,4.086c-7.163-0.524-13.65-4.206-19.366-8.306c-8.707-6.246-16.732-13.346-25.974-18.646
		c0.652-1.349,0.312-3.078-1.555-3.347c-22.026-3.164-42.622-14.161-56.814-31.426c-13.835-16.83-19.997-39.166-17.53-60.76
		c1.363-11.935,5.821-23.554,14.673-31.894c2.098,1.627,5.097-1.699,3.182-4.076c-14.665-18.197-23.385-39.56-22.965-63.159
		c0.357-20.088,7.175-39.687,18.463-56.226c22.874-33.514,64.055-52.142,103.876-54.249c19.56-1.036,39.607,1.995,57.307,10.642
		c16.977,8.294,34.255,22.207,39.542,41.072c2.518,8.984,2.3,18.951-2.129,27.318c-5.427,10.255-15.975,16.828-27.591,16.939
		c-11.669,0.111-22.586-4.902-32.823-9.959c-10.231-5.054-20.91-9.451-32.282-11.045c-23.346-3.272-46.795,6.688-62.02,24.411
		c-13.21,15.378-25.238,42.964-10.002,60.841c1.754,2.058,4.485,0.005,4.271-2.181c30.911-11.536,74.73-1.427,92.274,27.938
		c-10.367,4.089-10.059,17.703-11.721,27.041c-0.575,3.234,4.377,4.622,4.957,1.366c1.339-7.524,0.997-26.441,13.329-24.124
		c4.911,0.922,8.092,6.095,11.286,9.457c3.902,4.107,9.442,7.362,14.944,8.704c6.725,1.642,13.471,2.628,19.631,5.986
		c5.456,2.975,10.169,7.313,12.959,12.923C842.13,695.896,841.625,710.479,836.89,722.832"/>
	<path clip-path="url(#SVGID_2_)" fill="#48444F" d="M1056.885,853.92c5.837,0.443,11.743,1.643,17.639,3.688
		c5.678,1.973,11.4,4.929,14.513,10.071c3.112,5.142,2.484,12.892-2.654,16.008c-5.217,3.165-11.813,0.411-17.624-1.441
		c-14.717-4.688-31.391-2.829-44.714,4.984c-13.323,7.815-23.083,21.462-26.175,36.594c-1.087,5.321-1.061,11.646,3.015,15.236
		c6.16,5.427,15.647,0.532,22.222-4.383c14.003-10.468,28.005-20.935,42.006-31.403c3.432-2.563,7.684-5.267,11.696-3.768
		c3.495,1.305,5.136,5.232,6.271,8.787c4.582,14.364,7.169,29.362,7.664,44.433c0.238,7.237-1.379,16.36-8.379,18.207
		c-5.063,1.335-10.264-2.299-12.979-6.776s-3.739-9.755-5.762-14.585c-0.846-2.021-2.046-4.133-4.1-4.896
		c-2.08-0.772-4.384,0.07-6.401,0.992c-11.77,5.384-21.989,13.759-33.816,19.014s-26.689,6.836-36.941-1.061
		c-10.583-8.151-12.598-23.445-10.688-36.666C977.641,885.659,1015.543,850.792,1056.885,853.92"/>
	<path clip-path="url(#SVGID_2_)" fill="#48444F" d="M1269.765,872.739c-1.685,27.595-7.76,54.607-18.063,80.274
		c-4.769,11.873-11.916,17.876-19.732,16.38c-5.219-0.977-8.906-5.343-11.348-8.231l-15.908-18.816
		c-0.557-0.66-1.994-1.99-2.76-2.187c-0.87,0.021-2.087,1.579-2.48,2.088c-1.922,2.478-3.693,5.101-5.459,7.718
		c-3.646,5.401-7.412,10.979-12.554,15.39c-3.406,2.923-7.832,4.912-11.94,4.912c-2.648,0-5.162-0.831-7.183-2.773
		c-2.488-2.399-3.329-5.77-3.947-8.231c-4.954-19.883-9.24-40.277-12.729-60.621l-0.25-1.361c-0.908-4.83-3.323-17.663-3.178-27.567
		c0.119-7.743,1.75-12.112,5.136-13.733c2.8-1.359,6.223-0.451,10.195,2.649c4.685,3.646,5.979,9.931,6.831,14.091l10.802,52.57
		c0.546,2.659,1.886,4.711,2.561,4.57c0.883-0.083,1.989-2.015,2.353-2.648l11.619-20.276c5.11-8.917,11.847-12.72,17.6-9.94
		c3.715,1.797,5.336,5.661,6.64,8.767c3.88,9.229,8.865,17.997,14.823,26.052c1.885,2.545,2.949,2.763,3.417,2.728
		c0.894-0.151,1.724-1.745,2.274-4.379l11.687-54.877c0.778-3.688,1.745-8.279,4.913-11.702c2.016-2.181,4.965-3.521,7.905-3.578
		c2.409,0.021,4.548,0.789,6.097,2.342C1269.848,865.104,1270.014,868.974,1269.765,872.739"/>
	<path clip-path="url(#SVGID_2_)" fill="#48444F" d="M1403.598,857.607c5.678,1.973,11.4,4.929,14.513,10.071
		c3.111,5.142,2.484,12.892-2.655,16.008c-5.216,3.165-11.812,0.411-17.625-1.441c-14.716-4.688-31.389-2.829-44.711,4.984
		c-13.325,7.815-23.085,21.461-26.177,36.594c-1.087,5.321-1.061,11.646,3.015,15.236c6.16,5.427,15.647,0.532,22.223-4.383
		c14.002-10.468,28.005-20.935,42.006-31.403c3.431-2.563,7.684-5.267,11.695-3.768c3.496,1.305,5.137,5.232,6.271,8.787
		c4.582,14.364,7.17,29.362,7.666,44.433c0.237,7.237-1.379,16.36-8.38,18.207c-5.064,1.335-10.264-2.299-12.979-6.776
		s-3.74-9.755-5.762-14.585c-0.846-2.021-2.047-4.133-4.101-4.896c-2.079-0.772-4.384,0.07-6.4,0.992
		c-11.77,5.384-21.99,13.759-33.817,19.014c-11.826,5.255-26.688,6.836-36.94-1.061c-10.583-8.151-12.598-23.445-10.688-36.666
		c5.965-41.296,43.867-76.163,85.209-73.036C1391.796,854.363,1397.701,855.563,1403.598,857.607"/>
	<path clip-path="url(#SVGID_2_)" fill="#48444F" d="M939.666,711.747c-0.445,1.193-1.275,2.174-1.86,2.81
		c-2.468,2.673-5.628,4.472-8.899,5.063c-0.787,0.143-1.583,0.212-2.373,0.212c-2.791,0-5.513-0.87-7.591-2.479
		c-1.844-1.43-3.329-3.519-4.293-6.045c-0.767-2.014-1.23-4.3-1.453-7.195c-0.322-4.162-0.035-8.002,0.851-11.419
		c0.949-3.652,2.899-7.225,5.494-10.061c1.682-1.836,6.083-5.97,10.637-4.659c2.996,0.86,5.324,3.244,6.23,6.379
		c0.155,0.536,0.291,1.233-0.039,1.854c-0.22,0.416-0.615,0.713-1.111,0.834c-0.656,0.162-1.461,0.002-2.046-0.4
		c-0.526-0.359-0.915-0.838-1.291-1.298c-0.218-0.268-0.435-0.535-0.68-0.774c-1.998-1.949-4.902-1.106-6.891,0.591
		c-2.035,1.737-3.693,4.386-4.931,7.87c-0.904,2.546-1.346,5.216-1.314,7.935c0.028,2.432,0.439,4.799,1.221,7.035
		c0.868,2.483,2.449,4.327,4.451,5.197c1.993,0.867,4.563,0.75,6.875-0.309c1.93-0.883,3.746-2.38,5.552-4.574
		c0.363-0.439,1.11-1.35,2.128-1.16c0.52,0.101,0.972,0.496,1.273,1.109C940.097,709.263,940.12,710.533,939.666,711.747"/>
	<path clip-path="url(#SVGID_2_)" fill="#48444F" d="M1014.168,717.588c-0.07,1.027-0.746,2.092-1.764,2.253
		c-1.06,0.168-2.016-0.658-2.646-1.528c-2.06-2.846-2.421-6.571-3.992-9.713c-1.986-3.969-6.006-6.849-10.402-7.453
		c-1.944-0.267-4.046-0.074-5.652,1.052c-2.059,1.444-2.871,4.052-3.64,6.448c-0.627,1.956-1.312,3.892-2.054,5.808
		c-0.41,1.059-0.681,2.168-1.136,3.226c-0.295,0.686-0.646,1.393-1.266,1.804c-0.983,0.652-2.367,0.339-3.277-0.412
		c-2.109-1.74,1.034-6.456,1.779-8.385c0.965-2.502,1.849-5.034,2.797-7.545c1.718-4.547,3.483-9.075,5.331-13.571
		c1.017-2.474,2.06-4.94,3.324-7.299c0.892-1.665,2.362-5.317,4.859-4.419c0.864,0.312,1.515,1.024,2.076,1.753
		c2.083,2.708,3.373,5.929,4.638,9.102c3.442,8.633,6.884,17.266,10.326,25.898c0.268,0.674,0.539,1.365,0.651,2.074
		C1014.17,716.979,1014.189,717.282,1014.168,717.588 M994.099,689.344c-0.682,1.614-1.299,3.257-1.85,4.92
		c-0.056,0.172-0.113,0.354-0.07,0.531c0.074,0.309,0.41,0.465,0.709,0.572c1.944,0.699,3.979,1.15,6.037,1.337
		c0.378,0.035,0.787,0.051,1.101-0.157c0.581-0.388,0.493-1.255,0.325-1.932c-0.641-2.58-1.489-5.149-2.967-7.358
		c-0.214-0.318-0.451-0.639-0.786-0.826c-0.191-0.106-0.367-0.151-0.531-0.149C994.956,686.301,994.432,688.556,994.099,689.344"/>
	<path clip-path="url(#SVGID_2_)" fill="#48444F" d="M1062.129,716.691c-0.426-1.732-0.211-3.596-0.179-5.329
		c0.147-8.209-0.145-16.419-0.437-24.623c-0.031-0.831-0.092-1.744-0.665-2.347c-0.772-0.811-1.911-0.581-2.894-0.728
		c-1.188-0.177-2.283-0.276-3.505-0.21c-0.656,0.035-1.343,0.072-1.941-0.194c-1.248-0.555-1.604-2.322-0.944-3.517
		c1.24-2.247,3.57-1.754,5.675-1.778c2.782-0.031,5.563-0.098,8.347-0.112c1.691-0.009,3.383-0.018,5.074-0.027
		c1.496-0.01,2.961-0.099,4.459-0.08c0.662,0.009,1.371,0.15,1.829,0.631c0.593,0.619,0.579,1.584,0.529,2.44
		c-0.026,0.465-0.06,0.947-0.284,1.356c-0.418,0.761-1.355,1.039-2.207,1.217c-1.729,0.365-3.487,0.607-5.254,0.725
		c-0.366,0.024-0.748,0.049-1.062,0.238c-0.892,0.54-0.653,1.793-0.674,2.652c-0.026,1.058,0.064,2.085,0.095,3.142
		c0.225,7.991,0.45,15.984,0.677,23.976c0.03,1.09,0.059,2.203-0.26,3.246c-0.318,1.044-1.047,2.024-2.087,2.35
		C1064.324,720.377,1062.585,718.534,1062.129,716.691"/>
	<path clip-path="url(#SVGID_2_)" fill="#48444F" d="M1125.514,716.691c-0.427-1.732-0.211-3.596-0.18-5.329
		c0.148-8.209-0.145-16.419-0.436-24.623c-0.031-0.831-0.092-1.744-0.666-2.347c-0.771-0.811-1.91-0.581-2.893-0.728
		c-1.188-0.177-2.283-0.276-3.505-0.21c-0.656,0.035-1.343,0.072-1.942-0.194c-1.247-0.555-1.604-2.322-0.943-3.517
		c1.24-2.247,3.57-1.754,5.675-1.778c2.782-0.031,5.563-0.098,8.347-0.112c1.691-0.009,3.383-0.018,5.074-0.027
		c1.496-0.01,2.961-0.099,4.459-0.08c0.662,0.009,1.371,0.15,1.829,0.631c0.593,0.619,0.579,1.584,0.529,2.44
		c-0.026,0.465-0.06,0.947-0.284,1.356c-0.418,0.761-1.356,1.039-2.207,1.217c-1.729,0.365-3.488,0.607-5.254,0.725
		c-0.366,0.024-0.748,0.049-1.063,0.238c-0.891,0.54-0.652,1.793-0.674,2.652c-0.025,1.058,0.065,2.085,0.096,3.142
		c0.225,7.991,0.45,15.984,0.677,23.976c0.03,1.09,0.058,2.203-0.261,3.246c-0.317,1.044-1.047,2.024-2.086,2.35
		C1127.709,720.377,1125.97,718.534,1125.514,716.691"/>
	<path clip-path="url(#SVGID_2_)" fill="#48444F" d="M1186.517,719.535c-1.618-0.177-3.407-0.497-4.669-1.627
		c-1.266-1.135-1.532-3.066-1.667-4.685c-0.376-4.532-0.126-9.05-0.056-13.584c0.082-5.251-0.352-10.81,0.452-16
		c0.107-0.78,0.249-1.568,0.607-2.265c1.556-3.018,5.315-3.3,8.256-3.338c2.865-0.038,5.729-0.076,8.596-0.113
		c1.064-0.014,2.209-0.005,3.077,0.621c1.16,0.837,1.366,2.743,0.414,3.818c-0.889,1.001-2.358,1.141-3.683,1.212
		c-2.975,0.162-5.946,0.323-8.921,0.483c-0.931,0.052-1.96,0.146-2.601,0.835c-0.343,0.371-0.522,0.861-0.674,1.346
		c-0.819,2.617-1.071,5.416-0.731,8.141c0.117,0.947,0.357,1.975,1.109,2.552c1.084,0.828,2.609,0.328,3.966,0.25
		c1.197-0.069,2.462,0.267,3.305,1.129c0.845,0.863,1.147,2.308,0.517,3.344c-0.867,1.423-2.848,1.472-4.494,1.401
		c-1.646-0.071-3.656,0.113-4.37,1.622c-0.263,0.555-0.284,1.193-0.275,1.81c0.024,1.748,0.259,3.493,0.694,5.186
		c0.112,0.44,0.251,0.898,0.572,1.217c0.38,0.379,0.939,0.488,1.466,0.567c3.614,0.545,7.32,0.448,10.902-0.284
		c1.329-0.271,2.721-0.677,3.632-1.697c0.646-0.726,1.065-1.763,1.979-2.073c1.213-0.411,2.431,0.823,2.692,2.093
		c0.401,1.935-0.625,3.959-2.139,5.202c-1.516,1.242-3.445,1.833-5.35,2.243c-2.652,0.571-5.363,0.844-8.073,0.845
		C1189.537,719.785,1188.021,719.701,1186.517,719.535"/>
	<path clip-path="url(#SVGID_2_)" fill="#48444F" d="M1259.701,705.086c-0.606-1.372-1.651-2.732-3.133-2.959
		c-1.622-0.248-3.172,1.015-3.808,2.527c-0.636,1.512-0.575,3.216-0.506,4.854c0.101,2.34,0.203,4.68,0.304,7.018
		c0.039,0.909,0.058,1.894-0.464,2.639c-0.655,0.935-1.954,1.174-3.089,1.048c-0.744-0.083-1.551-0.343-1.922-0.994
		c-0.233-0.411-0.251-0.904-0.263-1.376c-0.162-6.666-0.231-13.334-0.211-20.001c0.011-3.285,0.045-6.569,0.099-9.852
		c0.023-1.55,0.152-3.142,0.273-4.692c0.048-0.611,0.125-1.231,0.378-1.789c0.254-0.557,0.71-1.052,1.3-1.216
		c0.525-0.147,1.088-0.021,1.63-0.078c1.404-0.15,2.951-0.991,4.34-1.373c3.024-0.831,6.258-1.213,9.288-0.404
		c3.029,0.81,5.816,2.977,6.752,5.971c1.162,3.72-0.703,7.743-3.201,10.733c-1.063,1.271-2.274,2.489-2.823,4.052
		c-0.576,1.643-0.341,3.452,0.021,5.155c0.492,2.32,1.204,4.593,2.124,6.778c0.344,0.818,1.098,1.784,1.906,1.415
		c0.478-0.217,0.642-0.797,0.807-1.296c0.295-0.896,0.782-1.766,1.559-2.301s1.88-0.66,2.656-0.123
		c1.187,0.821,1.064,2.597,0.701,3.995c-0.401,1.546-0.951,3.083-1.917,4.355c-0.965,1.271-2.396,2.257-3.988,2.391
		c-2.046,0.171-4.006-1.1-5.181-2.782c-1.175-1.685-1.693-3.732-2.093-5.745c-0.332-1.67-0.601-3.37-1.157-4.974
		C1259.969,705.732,1259.842,705.406,1259.701,705.086 M1251.792,695.056c0.11,0.327,0.251,0.673,0.541,0.86
		c0.256,0.165,0.577,0.177,0.882,0.18c2.414,0.014,4.868-0.289,7.078-1.261c2.212-0.972,4.167-2.667,5.112-4.888
		c0.631-1.485,0.752-3.311-0.178-4.629c-1.034-1.467-3.017-1.888-4.812-1.932c-2.021-0.051-4.104,0.248-5.865,1.241
		c-2.306,1.301-3.298,3.479-3.436,5.831C1251.025,691.981,1251.292,693.577,1251.792,695.056"/>
	<path clip-path="url(#SVGID_2_)" fill="#48444F" d="M1323.787,700.295c-0.876-2.305-2.395-4.296-3.776-6.338
		c-1.866-2.753-3.512-5.652-4.975-8.638c-0.79-1.612-3.339-6.989,0.035-7.546c0.957-0.157,1.925,0.357,2.569,1.082
		c0.647,0.723,1.037,1.634,1.432,2.521c1.969,4.426,4.341,8.674,7.08,12.672c0.213,0.31,0.508,0.653,0.878,0.6
		c0.253-0.037,0.437-0.25,0.593-0.454c3.534-4.606,5.311-10.366,8.834-14.981c0.422-0.552,0.91-1.114,1.58-1.294
		c1.083-0.291,2.212,0.602,2.538,1.674c0.326,1.074,0.046,2.235-0.344,3.285c-2.158,5.812-7.509,10.094-9.229,16.047
		c-0.753,2.604-0.754,5.357-0.749,8.068c0.004,2.937,0.01,5.874,0.015,8.812c0.002,1.414-0.188,3.144-1.485,3.71
		c-0.954,0.417-2.119-0.078-2.76-0.9c-0.642-0.821-0.866-1.89-0.995-2.923c-0.042-0.336-0.075-0.672-0.103-1.01
		C1324.538,709.851,1325.508,704.816,1323.787,700.295"/>
	<path clip-path="url(#SVGID_2_)" fill="#FFFFFF" d="M828.587,694.983c-1.041,0-1.885,0.844-1.885,1.885s0.844,1.887,1.885,1.887
		s1.885-0.846,1.885-1.887S829.628,694.983,828.587,694.983"/>
	<path clip-path="url(#SVGID_2_)" fill="#AAA7A7" d="M889.557,572.303c0.853-2.56,2.08-4.8,3.68-6.72
		c1.385-1.705,3.225-3.28,5.521-4.72c2.292-1.44,5.305-2.16,9.04-2.16c2.985,0,5.6,0.588,7.84,1.76c2.24,1.175,4.212,2.72,5.92,4.64
		c1.705,1.92,3.145,4.108,4.32,6.56c1.172,2.455,2.132,4.96,2.88,7.52c1.813,5.975,2.825,12.747,3.04,20.32
		c0.32,6.08,0.212,11.387-0.32,15.92c-0.535,4.536-1.308,8.427-2.32,11.68c-1.015,3.255-2.215,5.975-3.6,8.16
		c-1.388,2.188-2.827,3.92-4.32,5.199c-3.52,3.093-7.627,4.533-12.32,4.32c-2.88,0.105-5.6-0.375-8.16-1.439
		c-2.135-0.855-4.215-2.32-6.24-4.4c-2.027-2.08-3.308-5.146-3.84-9.2c-1.067,3.2-2.987,5.92-5.76,8.16
		c-2.347,1.92-5.655,3.575-9.92,4.96c-4.267,1.385-9.92,1.652-16.96,0.8c-5.76-0.64-10.88-2.345-15.36-5.12
		c-1.92-1.172-3.815-2.664-5.68-4.479c-1.868-1.813-3.52-4.053-4.96-6.72c-1.44-2.666-2.587-5.76-3.44-9.28
		c-0.855-3.52-1.28-7.573-1.28-12.16c-0.215-8,0.8-15.252,3.04-21.76c0.96-2.773,2.24-5.521,3.84-8.24c1.6-2.72,3.625-5.2,6.08-7.44
		c2.453-2.24,5.385-4.132,8.8-5.68c3.413-1.545,7.465-2.532,12.16-2.96c5.972-0.532,10.772-0.185,14.4,1.04
		c3.625,1.227,6.505,2.695,8.64,4.4C886.729,567.183,888.49,569.53,889.557,572.303 M882.517,597.423
		c-1.815,0-3.388,0.695-4.72,2.08c-1.335,1.387-1.895,2.935-1.68,4.64c0.213,2.24,0.88,3.787,2,4.64c1.12,0.855,2.585,1.28,4.4,1.28
		c1.812,0,3.305-0.532,4.48-1.6c1.172-1.065,1.76-2.505,1.76-4.32c0-1.705-0.535-3.253-1.6-4.64
		C886.088,598.118,884.542,597.423,882.517,597.423"/>
	<path clip-path="url(#SVGID_2_)" fill="none" stroke="#3F3D42" stroke-width="3" stroke-miterlimit="10" d="M889.557,572.303
		c0.853-2.56,2.08-4.8,3.68-6.72c1.385-1.705,3.225-3.28,5.521-4.72c2.292-1.44,5.305-2.16,9.04-2.16c2.985,0,5.6,0.588,7.84,1.76
		c2.24,1.175,4.212,2.72,5.92,4.64c1.705,1.92,3.145,4.108,4.32,6.56c1.172,2.455,2.132,4.96,2.88,7.52
		c1.813,5.975,2.825,12.747,3.04,20.32c0.32,6.08,0.212,11.387-0.32,15.92c-0.535,4.536-1.308,8.427-2.32,11.68
		c-1.015,3.255-2.215,5.975-3.6,8.16c-1.388,2.188-2.827,3.92-4.32,5.199c-3.52,3.093-7.627,4.533-12.32,4.32
		c-2.88,0.105-5.6-0.375-8.16-1.439c-2.135-0.855-4.215-2.32-6.24-4.4c-2.027-2.08-3.308-5.146-3.84-9.2
		c-1.067,3.2-2.987,5.92-5.76,8.16c-2.347,1.92-5.655,3.575-9.92,4.96c-4.267,1.385-9.92,1.652-16.96,0.8
		c-5.76-0.64-10.88-2.345-15.36-5.12c-1.92-1.172-3.815-2.664-5.68-4.479c-1.868-1.813-3.52-4.053-4.96-6.72
		c-1.44-2.666-2.587-5.76-3.44-9.28c-0.855-3.52-1.28-7.573-1.28-12.16c-0.215-8,0.8-15.252,3.04-21.76
		c0.96-2.773,2.24-5.521,3.84-8.24c1.6-2.72,3.625-5.2,6.08-7.44c2.453-2.24,5.385-4.132,8.8-5.68
		c3.413-1.545,7.465-2.532,12.16-2.96c5.972-0.532,10.772-0.185,14.4,1.04c3.625,1.227,6.505,2.695,8.64,4.4
		C886.729,567.183,888.49,569.53,889.557,572.303z M882.517,597.423c-1.815,0-3.388,0.695-4.72,2.08
		c-1.335,1.387-1.895,2.935-1.68,4.64c0.213,2.24,0.88,3.787,2,4.64c1.12,0.855,2.585,1.28,4.4,1.28c1.812,0,3.305-0.532,4.48-1.6
		c1.172-1.065,1.76-2.505,1.76-4.32c0-1.705-0.535-3.253-1.6-4.64C886.088,598.118,884.542,597.423,882.517,597.423z"/>
	<path clip-path="url(#SVGID_2_)" fill="#AAA7A7" d="M1022.036,621.104c-0.64,4.268-1.976,8.107-4,11.52
		c-1.814,2.881-4.535,5.521-8.16,7.92c-3.627,2.4-8.587,3.601-14.88,3.601c-4.48,0-8.348-0.96-11.6-2.88
		c-3.255-1.92-5.947-4.053-8.08-6.4c-2.56-2.772-4.64-5.865-6.24-9.279c-2.667-5.121-4.747-10.105-6.24-14.96
		c-1.495-4.853-2.667-9.253-3.52-13.2c-0.96-4.48-1.6-8.8-1.92-12.96c-0.535-6.505,0.241-11.52,2.32-15.04
		c2.08-3.52,4.506-6.185,7.28-8c3.2-1.92,6.933-3.145,11.2-3.68c3.84,0,7.225,0.535,10.16,1.6c2.933,1.067,5.44,2.48,7.52,4.24
		c2.08,1.76,3.812,3.787,5.2,6.08c1.385,2.295,2.505,4.615,3.359,6.96c1.921,5.547,2.934,11.84,3.04,18.88
		c-0.214-4.8,0.426-8.425,1.921-10.88c1.492-2.453,3.2-4.265,5.119-5.44c2.24-1.28,4.801-1.973,7.681-2.08
		c4.265,0.107,7.491,1.095,9.68,2.96c2.185,1.867,3.761,3.975,4.721,6.32c1.171,2.775,1.759,5.815,1.759,9.12
		c0-4.905,0.373-9.225,1.12-12.96c0.746-3.732,1.706-6.96,2.88-9.68c1.173-2.72,2.533-4.96,4.08-6.72
		c1.545-1.76,3.121-3.225,4.721-4.4c3.732-2.665,8-4,12.8-4c2.985,0,5.625,0.4,7.92,1.2c2.293,0.8,4.24,1.815,5.84,3.04
		c1.601,1.227,2.96,2.615,4.08,4.16c1.12,1.547,2,3.12,2.64,4.72c1.493,3.84,2.24,8.16,2.24,12.96c-0.215,6.72-0.908,12.72-2.079,18
		c-1.176,5.28-2.348,9.735-3.521,13.36c-1.495,4.268-3.096,8-4.8,11.199c-2.561,4.695-5.36,8.215-8.4,10.561
		c-3.04,2.348-5.947,4.055-8.72,5.12c-3.2,1.173-6.349,1.813-9.44,1.92c-3.415,0-6.427-0.319-9.04-0.96
		c-2.615-0.641-4.908-1.492-6.88-2.561c-1.975-1.064-3.627-2.265-4.96-3.6c-1.335-1.332-2.427-2.745-3.279-4.24
		C1023.528,629.211,1022.356,625.371,1022.036,621.104"/>
	<path clip-path="url(#SVGID_2_)" fill="none" stroke="#3F3D42" stroke-width="3" stroke-miterlimit="10" d="M1022.036,621.104
		c-0.64,4.268-1.976,8.107-4,11.52c-1.814,2.881-4.535,5.521-8.16,7.92c-3.627,2.4-8.587,3.601-14.88,3.601
		c-4.48,0-8.348-0.96-11.6-2.88c-3.255-1.92-5.947-4.053-8.08-6.4c-2.56-2.772-4.64-5.865-6.24-9.279
		c-2.667-5.121-4.747-10.105-6.24-14.96c-1.495-4.853-2.667-9.253-3.52-13.2c-0.96-4.48-1.6-8.8-1.92-12.96
		c-0.535-6.505,0.241-11.52,2.32-15.04c2.08-3.52,4.506-6.185,7.28-8c3.2-1.92,6.933-3.145,11.2-3.68c3.84,0,7.225,0.535,10.16,1.6
		c2.933,1.067,5.44,2.48,7.52,4.24c2.08,1.76,3.812,3.787,5.2,6.08c1.385,2.295,2.505,4.615,3.359,6.96
		c1.921,5.547,2.934,11.84,3.04,18.88c-0.214-4.8,0.426-8.425,1.921-10.88c1.492-2.453,3.2-4.265,5.119-5.44
		c2.24-1.28,4.801-1.973,7.681-2.08c4.265,0.107,7.491,1.095,9.68,2.96c2.185,1.867,3.761,3.975,4.721,6.32
		c1.171,2.775,1.759,5.815,1.759,9.12c0-4.905,0.373-9.225,1.12-12.96c0.746-3.732,1.706-6.96,2.88-9.68
		c1.173-2.72,2.533-4.96,4.08-6.72c1.545-1.76,3.121-3.225,4.721-4.4c3.732-2.665,8-4,12.8-4c2.985,0,5.625,0.4,7.92,1.2
		c2.293,0.8,4.24,1.815,5.84,3.04c1.601,1.227,2.96,2.615,4.08,4.16c1.12,1.547,2,3.12,2.64,4.72c1.493,3.84,2.24,8.16,2.24,12.96
		c-0.215,6.72-0.908,12.72-2.079,18c-1.176,5.28-2.348,9.735-3.521,13.36c-1.495,4.268-3.096,8-4.8,11.199
		c-2.561,4.695-5.36,8.215-8.4,10.561c-3.04,2.348-5.947,4.055-8.72,5.12c-3.2,1.173-6.349,1.813-9.44,1.92
		c-3.415,0-6.427-0.319-9.04-0.96c-2.615-0.641-4.908-1.492-6.88-2.561c-1.975-1.064-3.627-2.265-4.96-3.6
		c-1.335-1.332-2.427-2.745-3.279-4.24C1023.528,629.211,1022.356,625.371,1022.036,621.104z"/>
	<path clip-path="url(#SVGID_2_)" fill="#AAA7A7" d="M1174.196,572.303c0.853-2.56,2.08-4.8,3.68-6.72
		c1.386-1.705,3.226-3.28,5.521-4.72c2.292-1.44,5.305-2.16,9.04-2.16c2.984,0,5.6,0.588,7.84,1.76c2.24,1.175,4.212,2.72,5.92,4.64
		c1.705,1.92,3.145,4.108,4.32,6.56c1.172,2.455,2.132,4.96,2.88,7.52c1.813,5.975,2.824,12.747,3.04,20.32
		c0.319,6.08,0.212,11.387-0.32,15.92c-0.535,4.536-1.308,8.427-2.32,11.68c-1.015,3.255-2.215,5.975-3.6,8.16
		c-1.388,2.188-2.827,3.92-4.32,5.199c-3.52,3.093-7.627,4.533-12.319,4.32c-2.881,0.105-5.601-0.375-8.16-1.439
		c-2.135-0.855-4.215-2.32-6.24-4.4c-2.027-2.08-3.309-5.146-3.84-9.2c-1.067,3.2-2.987,5.92-5.76,8.16
		c-2.348,1.92-5.655,3.575-9.92,4.96c-4.268,1.385-9.921,1.652-16.961,0.8c-5.76-0.64-10.88-2.345-15.359-5.12
		c-1.92-1.172-3.815-2.664-5.68-4.479c-1.868-1.813-3.521-4.053-4.961-6.72c-1.439-2.666-2.587-5.76-3.439-9.28
		c-0.855-3.52-1.28-7.573-1.28-12.16c-0.215-8,0.8-15.252,3.04-21.76c0.96-2.773,2.24-5.521,3.84-8.24
		c1.601-2.72,3.625-5.2,6.08-7.44c2.453-2.24,5.385-4.132,8.8-5.68c3.413-1.545,7.466-2.532,12.16-2.96
		c5.972-0.532,10.772-0.185,14.4,1.04c3.625,1.227,6.505,2.695,8.64,4.4C1171.369,567.183,1173.129,569.53,1174.196,572.303
		 M1167.156,597.423c-1.815,0-3.388,0.695-4.72,2.08c-1.335,1.387-1.896,2.935-1.681,4.64c0.213,2.24,0.881,3.787,2,4.64
		c1.12,0.855,2.585,1.28,4.4,1.28c1.812,0,3.305-0.532,4.48-1.6c1.172-1.065,1.76-2.505,1.76-4.32c0-1.705-0.535-3.253-1.601-4.64
		C1170.729,598.118,1169.182,597.423,1167.156,597.423"/>
	<path clip-path="url(#SVGID_2_)" fill="none" stroke="#3F3D42" stroke-width="3" stroke-miterlimit="10" d="M1174.196,572.303
		c0.853-2.56,2.08-4.8,3.68-6.72c1.386-1.705,3.226-3.28,5.521-4.72c2.292-1.44,5.305-2.16,9.04-2.16c2.984,0,5.6,0.588,7.84,1.76
		c2.24,1.175,4.212,2.72,5.92,4.64c1.705,1.92,3.145,4.108,4.32,6.56c1.172,2.455,2.132,4.96,2.88,7.52
		c1.813,5.975,2.824,12.747,3.04,20.32c0.319,6.08,0.212,11.387-0.32,15.92c-0.535,4.536-1.308,8.427-2.32,11.68
		c-1.015,3.255-2.215,5.975-3.6,8.16c-1.388,2.188-2.827,3.92-4.32,5.199c-3.52,3.093-7.627,4.533-12.319,4.32
		c-2.881,0.105-5.601-0.375-8.16-1.439c-2.135-0.855-4.215-2.32-6.24-4.4c-2.027-2.08-3.309-5.146-3.84-9.2
		c-1.067,3.2-2.987,5.92-5.76,8.16c-2.348,1.92-5.655,3.575-9.92,4.96c-4.268,1.385-9.921,1.652-16.961,0.8
		c-5.76-0.64-10.88-2.345-15.359-5.12c-1.92-1.172-3.815-2.664-5.68-4.479c-1.868-1.813-3.521-4.053-4.961-6.72
		c-1.439-2.666-2.587-5.76-3.439-9.28c-0.855-3.52-1.28-7.573-1.28-12.16c-0.215-8,0.8-15.252,3.04-21.76
		c0.96-2.773,2.24-5.521,3.84-8.24c1.601-2.72,3.625-5.2,6.08-7.44c2.453-2.24,5.385-4.132,8.8-5.68
		c3.413-1.545,7.466-2.532,12.16-2.96c5.972-0.532,10.772-0.185,14.4,1.04c3.625,1.227,6.505,2.695,8.64,4.4
		C1171.369,567.183,1173.129,569.53,1174.196,572.303z M1167.156,597.423c-1.815,0-3.388,0.695-4.72,2.08
		c-1.335,1.387-1.896,2.935-1.681,4.64c0.213,2.24,0.881,3.787,2,4.64c1.12,0.855,2.585,1.28,4.4,1.28c1.812,0,3.305-0.532,4.48-1.6
		c1.172-1.065,1.76-2.505,1.76-4.32c0-1.705-0.535-3.253-1.601-4.64C1170.729,598.118,1169.182,597.423,1167.156,597.423z"/>
</g>
</svg>
