<?xml version="1.0" encoding="UTF-8"?>
<svg version="1.1" viewBox="0 0 740 370" xml:space="preserve" xmlns="http://www.w3.org/2000/svg" xmlns:xlink="http://www.w3.org/1999/xlink"><defs><clipPath id="SVGID_2_">
		<use overflow="visible" xlink:href="#SVGID_1_"/>
	</clipPath><rect id="SVGID_1_" width="2e3" height="1235"/></defs>

<g transform="translate(-612.12 -437.56)">
	
	<clipPath>
		<use overflow="visible" xlink:href="#SVGID_1_"/>
	</clipPath>
	<path d="m828.04 732.18c-17.166 24.187-46.412 36.999-75.441 36.505 7.4 1.22 14.999 1.338 22.506 0.387 26.248-3.328 52.116-21.018 61.783-46.238 1.246-3.252 2.19-6.659 2.809-10.133-3.022 7.072-7.27 13.742-11.657 19.479" clip-path="url(#SVGID_2_)" fill="#919191"/>
	<path d="m828.04 732.18c4.387-5.736 8.635-12.406 11.657-19.479 1.73-9.725 0.85-19.979-3.575-28.872-2.79-5.61-7.502-9.948-12.959-12.923-6.16-3.358-12.906-4.345-19.631-5.986-5.502-1.342-11.042-4.597-14.944-8.704-3.194-3.362-6.375-8.535-11.286-9.457-12.332-2.317-11.99 16.6-13.329 24.124-0.579 3.256-5.532 1.868-4.956-1.366 1.661-9.338 1.353-22.951 11.72-27.041-17.544-29.366-61.363-39.475-92.274-27.939 0.214 2.186-2.517 4.239-4.271 2.181-15.235-17.877-3.208-45.462 10.002-60.84 15.225-17.723 38.675-27.684 62.02-24.412 11.372 1.594 22.052 5.991 32.283 11.046 10.236 5.056 21.153 10.069 32.822 9.958 11.616-0.11 22.164-6.684 27.592-16.939 4.428-8.367 4.647-18.333 2.129-27.317-5.288-18.866-22.565-32.779-39.542-41.073-17.701-8.647-37.748-11.677-57.308-10.642-39.821 2.107-81.002 20.735-103.88 54.249-11.288 16.539-18.106 36.138-18.463 56.226-0.42 23.599 8.3 44.962 22.965 63.159 1.516 1.882-0.048 4.349-1.807 4.492-12.77 27.842-10.763 59.591 6.843 86.419 13.453 18.992 30.569 31.39 51.332 37.225 0.041 6e-3 0.081 0.014 0.122 0.02 0.295 0.043 0.539 0.132 0.759 0.24 1.426 0.386 2.868 0.741 4.328 1.066-1.46-0.325-2.902-0.681-4.328-1.066 1.169 0.572 1.34 1.952 0.804 3.084 15.616 8.011 32.7 28.902 49.784 14.259 0.584-0.292 0.763-0.987 0.686-1.873-9.469-1.37-18.682-4.418-27.049-9.257-2.866-1.657-0.274-6.097 2.594-4.438 6.934 4.01 14.462 6.696 22.235 8.139-0.06-0.094-0.12-0.19-0.18-0.28 0.06 0.09 0.12 0.187 0.18 0.28 0.491 0.092 0.986 0.163 1.48 0.244 29.029 0.492 58.275-12.321 75.441-36.507" clip-path="url(#SVGID_2_)" fill="#aaa7a7"/>
	<path d="m649.85 721.04c-17.606-26.828-19.613-58.577-6.843-86.419-0.463 0.037-0.938-0.077-1.375-0.416-8.852 8.34-13.31 19.959-14.673 31.894-2.466 21.594 3.695 43.93 17.53 60.76 14.166 17.232 34.712 28.219 56.693 31.406-20.763-5.835-37.879-18.233-51.332-37.225" clip-path="url(#SVGID_2_)" fill="#919191"/>
	<path d="m752.66 775.87c-17.084 14.644-34.167-6.248-49.784-14.259-4e-3 7e-3 -5e-3 0.015-9e-3 0.022 9.242 5.299 17.268 12.399 25.974 18.646 5.716 4.1 12.204 7.781 19.366 8.306 4.161 0.304 9.491-0.238 12.006-4.086 2.313-3.54 0.368-7.396-2.329-9.971-1.518-0.134-3.031-0.313-4.537-0.531 0.077 0.886-0.103 1.581-0.687 1.873" clip-path="url(#SVGID_2_)" fill="#919191"/>
	<path d="m776.06 657.05c0-2e-3 2e-3 -5e-3 2e-3 -8e-3 -0.019 0.021-0.036 0.037-0.044 0.045 0.018-0.016 0.026-0.023 0.042-0.037" clip-path="url(#SVGID_2_)" fill="#3f3d42"/><g fill="#48444f">
	<path d="m755.02 746.3c3.271-0.277 3.301-5.42 0-5.14-5.521 0.468-11.012 0.409-16.521-0.178-3.286-0.35-3.261 4.793 0 5.141 5.508 0.586 11 0.646 16.521 0.177" clip-path="url(#SVGID_2_)"/>
	<path d="m756.83 748.97c-2.5 2.531-5.425 4.526-8.756 5.805-3.057 1.174-1.729 6.145 1.367 4.957 4.174-1.603 7.875-3.939 11.024-7.128 2.326-2.356-1.305-5.993-3.635-3.634" clip-path="url(#SVGID_2_)"/>
	<path d="m815.68 712.61c0.72 2.111-0.357 4.434-2.908 3.979-1.537-0.275-3.356 0.676-3.253 2.478 0.138 2.417-1.549 4.214-3.988 4.125-3.309-0.119-3.304 5.021 0 5.141 4.243 0.153 7.933-2.817 8.892-6.767 4.659-0.756 7.954-5.215 6.214-10.321-1.062-3.113-6.028-1.777-4.957 1.365" clip-path="url(#SVGID_2_)"/>
	<path d="m786.06 731.32c-3.785 0-6.854 3.068-6.854 6.854 0 3.784 3.069 6.853 6.854 6.853s6.854-3.068 6.854-6.853-3.069-6.854-6.854-6.854" clip-path="url(#SVGID_2_)"/>
	</g><path d="m786.67 733.86c-1.376 0-2.493 1.116-2.493 2.493 0 1.376 1.117 2.492 2.493 2.492s2.493-1.116 2.493-2.492c1e-3 -1.376-1.117-2.493-2.493-2.493" clip-path="url(#SVGID_2_)" fill="#fff"/>
	<path d="m827.18 692.77c-3.312 0-5.997 2.686-5.997 5.997s2.685 5.997 5.997 5.997 5.997-2.686 5.997-5.997-2.685-5.997-5.997-5.997" clip-path="url(#SVGID_2_)" fill="#48444f"/>
	<path d="m734.98 710.62c-3.5-1.378-2.151-12.497 1.542-13.977 2.79-1.117 7.791-0.196 8.374 3.413 0.608 3.766-5.088 9.694-8.417 10.599-0.575 0.156-1.073 0.133-1.499-0.035" clip-path="url(#SVGID_2_)" fill="#919191"/>
	<path d="m737.04 704.74c1.063-0.345 2.097-1.542 1.904-2.743 1.088 0.41 2.552-0.156 3.08-1.156 0.706-1.337 0.241-2.665-0.922-3.517-1.66-1.213-4.076-1.038-5.661 0.188-1.568 1.211-2.347 3.554-1.563 5.434 0.516 1.235 1.725 2.259 3.162 1.794" clip-path="url(#SVGID_2_)" fill="#48444f"/>
	<path d="m776.59 651.66c-3.642-0.223-6.435 3.563-5.555 6.98 0.335 1.303 1.856 2.218 3.162 1.796 1.343-0.436 2.153-1.767 1.795-3.162-4e-3 -0.017-6e-3 -0.023-9e-3 -0.037 2e-3 -9e-3 3e-3 -0.011 5e-3 -0.021-3e-3 -9e-3 -2e-3 -0.016-4e-3 -0.023 0.119-0.175 0.364-0.404 0.074-0.149-8e-3 0.032-0.03 0.079-0.075 0.147-1e-3 -3e-3 -1e-3 -6e-3 -2e-3 -9e-3l8e-3 -0.123c0.03-0.072 0.09-0.096 0.072-0.022 0.021-0.022 0.047-0.05 0.074-0.078 0.026-0.017 0.063-0.043 0.103-0.072-0.035 0.023-0.056 0.033-0.067 0.033 0.095-0.104 0.166-0.188 0.017-0.044 0.019-0.025 0.043-0.054 0.083-0.082 0.028-1e-3 0.057 1e-3 0.085 1e-3 -0.011 9e-3 -0.02 0.016-0.029 0.023 0.01-8e-3 0.021-0.016 0.029-0.023 0.078 1e-3 0.156-3e-3 0.234 5e-3 1.344 0.083 2.63-1.24 2.57-2.569-0.065-1.464-1.13-2.483-2.57-2.571m-0.199 5.107c3e-3 -3e-3 8e-3 -7e-3 0.011-9e-3 -5e-3 5e-3 -7e-3 6e-3 -0.011 9e-3 -0.033 4e-3 -0.066 9e-3 -0.099 0.013 0.07-0.046 0.152-0.074 0.212-0.027-0.037 5e-3 -0.075 0.01-0.113 0.014" clip-path="url(#SVGID_2_)" fill="#48444f"/>
	<path d="m670.41 583.98c0.932-6.356 3.324-17.015 10.28-28.27 9.392-15.195 21.609-22.587 23.987-23.987 19.596-11.531 42.457-11.129 58.254-5.997 8.104 2.633 20.116 8.384 22.273 9.424 12.763 6.152 15.998 9.074 23.13 10.28 3.756 0.635 15.249 2.531 24.844-4.283 13.574-9.642 12.107-28.756 11.993-29.984 1.03 2.944 4.594 14.249-0.857 25.7-6.464 13.579-21.457 18.651-31.696 18.847-7.313 0.14-14.014-2.762-27.414-8.567-11.889-5.15-12.358-7.033-20.56-9.423-10.288-2.998-18.897-2.759-25.7-2.57-9.356 0.26-18.405 1.774-23.987 3.426-26.95 7.975-42.067 39.981-44.547 45.404" clip-path="url(#SVGID_2_)" fill="#919191"/>
	<path d="m725.59 694.29c-0.742 0.018-1.759 4.302-3.793 12.871-2.56 10.785-2.914 14.891-0.463 18.475 0.243 0.356 2.362 3.396 4.088 3.029 1.685-0.357 2.168-3.783 2.407-6.057 1.106-10.476 0.398-28.38-2.239-28.318" clip-path="url(#SVGID_2_)" fill="#919191"/>
	<path d="m734.01 690.9c4.804-1.608 9.982 2.661 13.923 4.952 2.865 1.666 5.456-2.774 2.594-4.438-4.575-2.659-9.575-6.379-15.149-6.059-4.42 0.253-8.224 3.186-10.036 7.122-1.876 4.075-1.813 8.868-1.992 13.259-0.272 6.636 0.048 13.252 0.832 19.844 0.386 3.245 5.531 3.284 5.14 0-1.002-8.419-1.296-16.993-0.535-25.448 0.333-3.703 1.249-7.903 5.223-9.232" clip-path="url(#SVGID_2_)" fill="#48444f"/>
	<path d="m772.27 642.89c-4.334-2.944-9.441 4.941-11.31 7.753-2.915 4.386-4.899 10.492-5.735 15.637-0.341 2.101-0.926 5.559 0.94 7.182 3.754 3.268 5.176-1.724 5.747-4.725 0.98-5.155 1.407-10.44 3.153-15.438 0.409-1.17 6.029-11.211 7.205-10.409" clip-path="url(#SVGID_2_)" fill="#919191"/>
	<path d="m786.92 753.17c0 4.495-3.644 8.139-8.138 8.139-4.495 0-8.138-3.644-8.138-8.139 0-4.494 3.643-8.138 8.138-8.138 4.494 0 8.138 3.644 8.138 8.138" clip-path="url(#SVGID_2_)" fill="#ffdede"/>
	<path d="m842.33 691.09c-4.166 0.356-7.437 3.846-7.437 8.104 0 4.493 3.644 8.137 8.139 8.137 0.304 0 0.603-0.02 0.899-0.052 0.046-5.396-0.368-10.793-1.601-16.189" clip-path="url(#SVGID_2_)" fill="#ffdede"/><g fill="#48444f">
	<path d="m846.72 672.96c-2.453 1.681-4.907 3.362-7.36 5.044-0.178 0.122-0.332 0.258-0.466 0.4-0.19-0.297-0.384-0.59-0.583-0.878 2.477-5.848 3.524-11.923 2.803-18.258-0.37-3.248-5.514-3.285-5.14 0 0.534 4.695 0.145 9.332-1.374 13.763 0.236-0.689-4.741-4.035-5.37-4.464-1.997-1.362-4.12-2.535-6.318-3.54-4.766-2.177-9.891-3.607-15.062-4.407-8.888-1.374-14.659-6.931-20.666-13.156-3.145-3.26-6.746-5.82-11.067-5.981-8.648-15.7-23.822-26.09-40.622-31.593-18.877-6.184-40.917-7.256-59.579 0.121-0.076 0.03-0.138 0.072-0.209 0.107-5.511-9.199-3.377-21.051 0.277-30.735 3.824-10.135 10.262-19.227 18.287-26.468 8.244-7.439 18.292-12.849 29.113-15.396 12.846-3.023 25.833-1.313 38.122 3.138 20.561 7.446 42.211 24.212 64.895 13.633 18.662-8.702 25.051-30.355 19.105-49.085-5.911-18.622-22.474-32.738-39.354-41.472-17.414-9.011-37.152-12.854-56.677-12.557-40.673 0.617-83.419 18.088-108.87 50.541-26.082 33.256-31.881 79.072-10.66 116.31 2.49 4.367 5.372 8.312 8.428 12.207-0.032 0.027-0.065 0.045-0.097 0.074-16.817 15.552-19.34 41.114-15.248 62.494 4.474 23.38 19.059 43.532 38.969 56.339 8.942 5.753 18.833 9.928 29.15 12.408 0.237 0.211 0.518 0.393 0.861 0.521 9.31 3.494 18.202 9.783 25.844 16.037 6.726 5.503 13.587 11.02 21.911 13.898 7.127 2.465 16.875 3.132 22.802-2.428 4.436-4.16 4.572-9.983 1.994-14.738 17.977 0.117 36.053-5.577 50.354-16.523 22.592-17.295 38.708-46.24 26.727-74.706-0.12-0.283-0.249-0.556-0.375-0.833 0.228-0.073 0.458-0.174 0.691-0.332 2.454-1.682 4.907-3.362 7.36-5.044 2.712-1.859 0.143-6.315-2.594-4.439m-9.828 49.869c-9.667 25.221-35.536 42.91-61.783 46.238-15.923 2.019-32.273-0.703-46.221-8.77-2.869-1.658-5.46 2.781-2.594 4.438 9.699 5.608 20.533 8.817 31.586 9.788 2.698 2.574 4.644 6.431 2.33 9.971-2.515 3.848-7.845 4.39-12.006 4.086-7.163-0.524-13.65-4.206-19.366-8.306-8.707-6.246-16.732-13.346-25.974-18.646 0.652-1.349 0.312-3.078-1.555-3.347-22.026-3.164-42.622-14.161-56.814-31.426-13.835-16.83-19.997-39.166-17.53-60.76 1.363-11.935 5.821-23.554 14.673-31.894 2.098 1.627 5.097-1.699 3.182-4.076-14.665-18.197-23.385-39.56-22.965-63.159 0.357-20.088 7.175-39.687 18.463-56.226 22.874-33.514 64.055-52.142 103.88-54.249 19.56-1.036 39.607 1.995 57.307 10.642 16.977 8.294 34.255 22.207 39.542 41.072 2.518 8.984 2.3 18.951-2.129 27.318-5.427 10.255-15.975 16.828-27.591 16.939-11.669 0.111-22.586-4.902-32.823-9.959-10.231-5.054-20.91-9.451-32.282-11.045-23.346-3.272-46.795 6.688-62.02 24.411-13.21 15.378-25.238 42.964-10.002 60.841 1.754 2.058 4.485 5e-3 4.271-2.181 30.911-11.536 74.73-1.427 92.274 27.938-10.367 4.089-10.059 17.703-11.721 27.041-0.575 3.234 4.377 4.622 4.957 1.366 1.339-7.524 0.997-26.441 13.329-24.124 4.911 0.922 8.092 6.095 11.286 9.457 3.902 4.107 9.442 7.362 14.944 8.704 6.725 1.642 13.471 2.628 19.631 5.986 5.456 2.975 10.169 7.313 12.959 12.923 6.006 12.073 5.501 26.656 0.766 39.009" clip-path="url(#SVGID_2_)"/>
	<path d="m939.67 711.75c-0.445 1.193-1.275 2.174-1.86 2.81-2.468 2.673-5.628 4.472-8.899 5.063-0.787 0.143-1.583 0.212-2.373 0.212-2.791 0-5.513-0.87-7.591-2.479-1.844-1.43-3.329-3.519-4.293-6.045-0.767-2.014-1.23-4.3-1.453-7.195-0.322-4.162-0.035-8.002 0.851-11.419 0.949-3.652 2.899-7.225 5.494-10.061 1.682-1.836 6.083-5.97 10.637-4.659 2.996 0.86 5.324 3.244 6.23 6.379 0.155 0.536 0.291 1.233-0.039 1.854-0.22 0.416-0.615 0.713-1.111 0.834-0.656 0.162-1.461 2e-3 -2.046-0.4-0.526-0.359-0.915-0.838-1.291-1.298-0.218-0.268-0.435-0.535-0.68-0.774-1.998-1.949-4.902-1.106-6.891 0.591-2.035 1.737-3.693 4.386-4.931 7.87-0.904 2.546-1.346 5.216-1.314 7.935 0.028 2.432 0.439 4.799 1.221 7.035 0.868 2.483 2.449 4.327 4.451 5.197 1.993 0.867 4.563 0.75 6.875-0.309 1.93-0.883 3.746-2.38 5.552-4.574 0.363-0.439 1.11-1.35 2.128-1.16 0.52 0.101 0.972 0.496 1.273 1.109 0.491 1 0.514 2.27 0.06 3.484" clip-path="url(#SVGID_2_)"/>
	<path d="m1014.2 717.59c-0.07 1.027-0.746 2.092-1.764 2.253-1.06 0.168-2.016-0.658-2.646-1.528-2.06-2.846-2.421-6.571-3.992-9.713-1.986-3.969-6.006-6.849-10.402-7.453-1.944-0.267-4.046-0.074-5.652 1.052-2.059 1.444-2.871 4.052-3.64 6.448-0.627 1.956-1.312 3.892-2.054 5.808-0.41 1.059-0.681 2.168-1.136 3.226-0.295 0.686-0.646 1.393-1.266 1.804-0.983 0.652-2.367 0.339-3.277-0.412-2.109-1.74 1.034-6.456 1.779-8.385 0.965-2.502 1.849-5.034 2.797-7.545 1.718-4.547 3.483-9.075 5.331-13.571 1.017-2.474 2.06-4.94 3.324-7.299 0.892-1.665 2.362-5.317 4.859-4.419 0.864 0.312 1.515 1.024 2.076 1.753 2.083 2.708 3.373 5.929 4.638 9.102 3.442 8.633 6.884 17.266 10.326 25.898 0.268 0.674 0.539 1.365 0.651 2.074 0.05 0.298 0.069 0.601 0.048 0.907m-20.069-28.244c-0.682 1.614-1.299 3.257-1.85 4.92-0.056 0.172-0.113 0.354-0.07 0.531 0.074 0.309 0.41 0.465 0.709 0.572 1.944 0.699 3.979 1.15 6.037 1.337 0.378 0.035 0.787 0.051 1.101-0.157 0.581-0.388 0.493-1.255 0.325-1.932-0.641-2.58-1.489-5.149-2.967-7.358-0.214-0.318-0.451-0.639-0.786-0.826-0.191-0.106-0.367-0.151-0.531-0.149-1.111 0.019-1.635 2.274-1.968 3.062" clip-path="url(#SVGID_2_)"/>
	<path d="m1062.1 716.69c-0.426-1.732-0.211-3.596-0.179-5.329 0.147-8.209-0.145-16.419-0.437-24.623-0.031-0.831-0.092-1.744-0.665-2.347-0.772-0.811-1.911-0.581-2.894-0.728-1.188-0.177-2.283-0.276-3.505-0.21-0.656 0.035-1.343 0.072-1.941-0.194-1.248-0.555-1.604-2.322-0.944-3.517 1.24-2.247 3.57-1.754 5.675-1.778 2.782-0.031 5.563-0.098 8.347-0.112 1.691-9e-3 3.383-0.018 5.074-0.027 1.496-0.01 2.961-0.099 4.459-0.08 0.662 9e-3 1.371 0.15 1.829 0.631 0.593 0.619 0.579 1.584 0.529 2.44-0.026 0.465-0.06 0.947-0.284 1.356-0.418 0.761-1.355 1.039-2.207 1.217-1.729 0.365-3.487 0.607-5.254 0.725-0.366 0.024-0.748 0.049-1.062 0.238-0.892 0.54-0.653 1.793-0.674 2.652-0.026 1.058 0.064 2.085 0.095 3.142 0.225 7.991 0.45 15.984 0.677 23.976 0.03 1.09 0.059 2.203-0.26 3.246-0.318 1.044-1.047 2.024-2.087 2.35-2.097 0.658-3.836-1.185-4.292-3.028" clip-path="url(#SVGID_2_)"/>
	<path d="m1125.5 716.69c-0.427-1.732-0.211-3.596-0.18-5.329 0.148-8.209-0.145-16.419-0.436-24.623-0.031-0.831-0.092-1.744-0.666-2.347-0.771-0.811-1.91-0.581-2.893-0.728-1.188-0.177-2.283-0.276-3.505-0.21-0.656 0.035-1.343 0.072-1.942-0.194-1.247-0.555-1.604-2.322-0.943-3.517 1.24-2.247 3.57-1.754 5.675-1.778 2.782-0.031 5.563-0.098 8.347-0.112 1.691-9e-3 3.383-0.018 5.074-0.027 1.496-0.01 2.961-0.099 4.459-0.08 0.662 9e-3 1.371 0.15 1.829 0.631 0.593 0.619 0.579 1.584 0.529 2.44-0.026 0.465-0.06 0.947-0.284 1.356-0.418 0.761-1.356 1.039-2.207 1.217-1.729 0.365-3.488 0.607-5.254 0.725-0.366 0.024-0.748 0.049-1.063 0.238-0.891 0.54-0.652 1.793-0.674 2.652-0.025 1.058 0.065 2.085 0.096 3.142 0.225 7.991 0.45 15.984 0.677 23.976 0.03 1.09 0.058 2.203-0.261 3.246-0.317 1.044-1.047 2.024-2.086 2.35-2.097 0.658-3.836-1.185-4.292-3.028" clip-path="url(#SVGID_2_)"/>
	<path d="m1186.5 719.54c-1.618-0.177-3.407-0.497-4.669-1.627-1.266-1.135-1.532-3.066-1.667-4.685-0.376-4.532-0.126-9.05-0.056-13.584 0.082-5.251-0.352-10.81 0.452-16 0.107-0.78 0.249-1.568 0.607-2.265 1.556-3.018 5.315-3.3 8.256-3.338 2.865-0.038 5.729-0.076 8.596-0.113 1.064-0.014 2.209-5e-3 3.077 0.621 1.16 0.837 1.366 2.743 0.414 3.818-0.889 1.001-2.358 1.141-3.683 1.212-2.975 0.162-5.946 0.323-8.921 0.483-0.931 0.052-1.96 0.146-2.601 0.835-0.343 0.371-0.522 0.861-0.674 1.346-0.819 2.617-1.071 5.416-0.731 8.141 0.117 0.947 0.357 1.975 1.109 2.552 1.084 0.828 2.609 0.328 3.966 0.25 1.197-0.069 2.462 0.267 3.305 1.129 0.845 0.863 1.147 2.308 0.517 3.344-0.867 1.423-2.848 1.472-4.494 1.401s-3.656 0.113-4.37 1.622c-0.263 0.555-0.284 1.193-0.275 1.81 0.024 1.748 0.259 3.493 0.694 5.186 0.112 0.44 0.251 0.898 0.572 1.217 0.38 0.379 0.939 0.488 1.466 0.567 3.614 0.545 7.32 0.448 10.902-0.284 1.329-0.271 2.721-0.677 3.632-1.697 0.646-0.726 1.065-1.763 1.979-2.073 1.213-0.411 2.431 0.823 2.692 2.093 0.401 1.935-0.625 3.959-2.139 5.202-1.516 1.242-3.445 1.833-5.35 2.243-2.652 0.571-5.363 0.844-8.073 0.845-1.513-1e-3 -3.029-0.085-4.533-0.251" clip-path="url(#SVGID_2_)"/>
	<path d="m1259.7 705.09c-0.606-1.372-1.651-2.732-3.133-2.959-1.622-0.248-3.172 1.015-3.808 2.527s-0.575 3.216-0.506 4.854c0.101 2.34 0.203 4.68 0.304 7.018 0.039 0.909 0.058 1.894-0.464 2.639-0.655 0.935-1.954 1.174-3.089 1.048-0.744-0.083-1.551-0.343-1.922-0.994-0.233-0.411-0.251-0.904-0.263-1.376-0.162-6.666-0.231-13.334-0.211-20.001 0.011-3.285 0.045-6.569 0.099-9.852 0.023-1.55 0.152-3.142 0.273-4.692 0.048-0.611 0.125-1.231 0.378-1.789 0.254-0.557 0.71-1.052 1.3-1.216 0.525-0.147 1.088-0.021 1.63-0.078 1.404-0.15 2.951-0.991 4.34-1.373 3.024-0.831 6.258-1.213 9.288-0.404 3.029 0.81 5.816 2.977 6.752 5.971 1.162 3.72-0.703 7.743-3.201 10.733-1.063 1.271-2.274 2.489-2.823 4.052-0.576 1.643-0.341 3.452 0.021 5.155 0.492 2.32 1.204 4.593 2.124 6.778 0.344 0.818 1.098 1.784 1.906 1.415 0.478-0.217 0.642-0.797 0.807-1.296 0.295-0.896 0.782-1.766 1.559-2.301s1.88-0.66 2.656-0.123c1.187 0.821 1.064 2.597 0.701 3.995-0.401 1.546-0.951 3.083-1.917 4.355-0.965 1.271-2.396 2.257-3.988 2.391-2.046 0.171-4.006-1.1-5.181-2.782-1.175-1.685-1.693-3.732-2.093-5.745-0.332-1.67-0.601-3.37-1.157-4.974-0.114-0.33-0.241-0.656-0.382-0.976m-7.909-10.03c0.11 0.327 0.251 0.673 0.541 0.86 0.256 0.165 0.577 0.177 0.882 0.18 2.414 0.014 4.868-0.289 7.078-1.261 2.212-0.972 4.167-2.667 5.112-4.888 0.631-1.485 0.752-3.311-0.178-4.629-1.034-1.467-3.017-1.888-4.812-1.932-2.021-0.051-4.104 0.248-5.865 1.241-2.306 1.301-3.298 3.479-3.436 5.831-0.089 1.523 0.178 3.119 0.678 4.598" clip-path="url(#SVGID_2_)"/>
	<path d="m1323.8 700.3c-0.876-2.305-2.395-4.296-3.776-6.338-1.866-2.753-3.512-5.652-4.975-8.638-0.79-1.612-3.339-6.989 0.035-7.546 0.957-0.157 1.925 0.357 2.569 1.082 0.647 0.723 1.037 1.634 1.432 2.521 1.969 4.426 4.341 8.674 7.08 12.672 0.213 0.31 0.508 0.653 0.878 0.6 0.253-0.037 0.437-0.25 0.593-0.454 3.534-4.606 5.311-10.366 8.834-14.981 0.422-0.552 0.91-1.114 1.58-1.294 1.083-0.291 2.212 0.602 2.538 1.674 0.326 1.074 0.046 2.235-0.344 3.285-2.158 5.812-7.509 10.094-9.229 16.047-0.753 2.604-0.754 5.357-0.749 8.068 0 2.937 0.01 5.874 0.015 8.812 0 1.414-0.188 3.144-1.485 3.71-0.954 0.417-2.119-0.078-2.76-0.9-0.642-0.821-0.866-1.89-0.995-2.923-0.042-0.336-0.075-0.672-0.103-1.01-0.387-4.831 0.583-9.866-1.138-14.387" clip-path="url(#SVGID_2_)"/>
	</g><path d="m828.59 694.98c-1.041 0-1.885 0.844-1.885 1.885s0.844 1.887 1.885 1.887 1.885-0.846 1.885-1.887-0.844-1.885-1.885-1.885" clip-path="url(#SVGID_2_)" fill="#fff"/>
	<path d="m889.56 572.3c0.853-2.56 2.08-4.8 3.68-6.72 1.385-1.705 3.225-3.28 5.521-4.72 2.292-1.44 5.305-2.16 9.04-2.16 2.985 0 5.6 0.588 7.84 1.76 2.24 1.175 4.212 2.72 5.92 4.64 1.705 1.92 3.145 4.108 4.32 6.56 1.172 2.455 2.132 4.96 2.88 7.52 1.813 5.975 2.825 12.747 3.04 20.32 0.32 6.08 0.212 11.387-0.32 15.92-0.535 4.536-1.308 8.427-2.32 11.68-1.015 3.255-2.215 5.975-3.6 8.16-1.388 2.188-2.827 3.92-4.32 5.199-3.52 3.093-7.627 4.533-12.32 4.32-2.88 0.105-5.6-0.375-8.16-1.439-2.135-0.855-4.215-2.32-6.24-4.4-2.027-2.08-3.308-5.146-3.84-9.2-1.067 3.2-2.987 5.92-5.76 8.16-2.347 1.92-5.655 3.575-9.92 4.96-4.267 1.385-9.92 1.652-16.96 0.8-5.76-0.64-10.88-2.345-15.36-5.12-1.92-1.172-3.815-2.664-5.68-4.479-1.868-1.813-3.52-4.053-4.96-6.72-1.44-2.666-2.587-5.76-3.44-9.28-0.855-3.52-1.28-7.573-1.28-12.16-0.215-8 0.8-15.252 3.04-21.76 0.96-2.773 2.24-5.521 3.84-8.24 1.6-2.72 3.625-5.2 6.08-7.44 2.453-2.24 5.385-4.132 8.8-5.68 3.413-1.545 7.465-2.532 12.16-2.96 5.972-0.532 10.772-0.185 14.4 1.04 3.625 1.227 6.505 2.695 8.64 4.4 2.451 1.919 4.212 4.266 5.279 7.039m-7.04 25.12c-1.815 0-3.388 0.695-4.72 2.08-1.335 1.387-1.895 2.935-1.68 4.64 0.213 2.24 0.88 3.787 2 4.64 1.12 0.855 2.585 1.28 4.4 1.28 1.812 0 3.305-0.532 4.48-1.6 1.172-1.065 1.76-2.505 1.76-4.32 0-1.705-0.535-3.253-1.6-4.64-1.069-1.385-2.615-2.08-4.64-2.08" clip-path="url(#SVGID_2_)" fill="#aaa7a7"/>
	<path d="m889.56 572.3c0.853-2.56 2.08-4.8 3.68-6.72 1.385-1.705 3.225-3.28 5.521-4.72 2.292-1.44 5.305-2.16 9.04-2.16 2.985 0 5.6 0.588 7.84 1.76 2.24 1.175 4.212 2.72 5.92 4.64 1.705 1.92 3.145 4.108 4.32 6.56 1.172 2.455 2.132 4.96 2.88 7.52 1.813 5.975 2.825 12.747 3.04 20.32 0.32 6.08 0.212 11.387-0.32 15.92-0.535 4.536-1.308 8.427-2.32 11.68-1.015 3.255-2.215 5.975-3.6 8.16-1.388 2.188-2.827 3.92-4.32 5.199-3.52 3.093-7.627 4.533-12.32 4.32-2.88 0.105-5.6-0.375-8.16-1.439-2.135-0.855-4.215-2.32-6.24-4.4-2.027-2.08-3.308-5.146-3.84-9.2-1.067 3.2-2.987 5.92-5.76 8.16-2.347 1.92-5.655 3.575-9.92 4.96-4.267 1.385-9.92 1.652-16.96 0.8-5.76-0.64-10.88-2.345-15.36-5.12-1.92-1.172-3.815-2.664-5.68-4.479-1.868-1.813-3.52-4.053-4.96-6.72-1.44-2.666-2.587-5.76-3.44-9.28-0.855-3.52-1.28-7.573-1.28-12.16-0.215-8 0.8-15.252 3.04-21.76 0.96-2.773 2.24-5.521 3.84-8.24 1.6-2.72 3.625-5.2 6.08-7.44 2.453-2.24 5.385-4.132 8.8-5.68 3.413-1.545 7.465-2.532 12.16-2.96 5.972-0.532 10.772-0.185 14.4 1.04 3.625 1.227 6.505 2.695 8.64 4.4 2.451 1.919 4.212 4.266 5.279 7.039zm-7.04 25.12c-1.815 0-3.388 0.695-4.72 2.08-1.335 1.387-1.895 2.935-1.68 4.64 0.213 2.24 0.88 3.787 2 4.64 1.12 0.855 2.585 1.28 4.4 1.28 1.812 0 3.305-0.532 4.48-1.6 1.172-1.065 1.76-2.505 1.76-4.32 0-1.705-0.535-3.253-1.6-4.64-1.069-1.385-2.615-2.08-4.64-2.08z" clip-path="url(#SVGID_2_)" fill="none" stroke="#3f3d42" stroke-miterlimit="10" stroke-width="3"/>
	<path d="m1022 621.1c-0.64 4.268-1.976 8.107-4 11.52-1.814 2.881-4.535 5.521-8.16 7.92-3.627 2.4-8.587 3.601-14.88 3.601-4.48 0-8.348-0.96-11.6-2.88-3.255-1.92-5.947-4.053-8.08-6.4-2.56-2.772-4.64-5.865-6.24-9.279-2.667-5.121-4.747-10.105-6.24-14.96-1.495-4.853-2.667-9.253-3.52-13.2-0.96-4.48-1.6-8.8-1.92-12.96-0.535-6.505 0.241-11.52 2.32-15.04 2.08-3.52 4.506-6.185 7.28-8 3.2-1.92 6.933-3.145 11.2-3.68 3.84 0 7.225 0.535 10.16 1.6 2.933 1.067 5.44 2.48 7.52 4.24s3.812 3.787 5.2 6.08c1.385 2.295 2.505 4.615 3.359 6.96 1.921 5.547 2.934 11.84 3.04 18.88-0.214-4.8 0.426-8.425 1.921-10.88 1.492-2.453 3.2-4.265 5.119-5.44 2.24-1.28 4.801-1.973 7.681-2.08 4.265 0.107 7.491 1.095 9.68 2.96 2.185 1.867 3.761 3.975 4.721 6.32 1.171 2.775 1.759 5.815 1.759 9.12 0-4.905 0.373-9.225 1.12-12.96 0.746-3.732 1.706-6.96 2.88-9.68 1.173-2.72 2.533-4.96 4.08-6.72 1.545-1.76 3.121-3.225 4.721-4.4 3.732-2.665 8-4 12.8-4 2.985 0 5.625 0.4 7.92 1.2 2.293 0.8 4.24 1.815 5.84 3.04 1.601 1.227 2.96 2.615 4.08 4.16 1.12 1.547 2 3.12 2.64 4.72 1.493 3.84 2.24 8.16 2.24 12.96-0.215 6.72-0.908 12.72-2.079 18-1.176 5.28-2.348 9.735-3.521 13.36-1.495 4.268-3.096 8-4.8 11.199-2.561 4.695-5.36 8.215-8.4 10.561-3.04 2.348-5.947 4.055-8.72 5.12-3.2 1.173-6.349 1.813-9.44 1.92-3.415 0-6.427-0.319-9.04-0.96-2.615-0.641-4.908-1.492-6.88-2.561-1.975-1.064-3.627-2.265-4.96-3.6-1.335-1.332-2.427-2.745-3.279-4.24-2.03-3.414-3.202-7.254-3.522-11.521" clip-path="url(#SVGID_2_)" fill="#aaa7a7"/>
	<path d="m1022 621.1c-0.64 4.268-1.976 8.107-4 11.52-1.814 2.881-4.535 5.521-8.16 7.92-3.627 2.4-8.587 3.601-14.88 3.601-4.48 0-8.348-0.96-11.6-2.88-3.255-1.92-5.947-4.053-8.08-6.4-2.56-2.772-4.64-5.865-6.24-9.279-2.667-5.121-4.747-10.105-6.24-14.96-1.495-4.853-2.667-9.253-3.52-13.2-0.96-4.48-1.6-8.8-1.92-12.96-0.535-6.505 0.241-11.52 2.32-15.04 2.08-3.52 4.506-6.185 7.28-8 3.2-1.92 6.933-3.145 11.2-3.68 3.84 0 7.225 0.535 10.16 1.6 2.933 1.067 5.44 2.48 7.52 4.24s3.812 3.787 5.2 6.08c1.385 2.295 2.505 4.615 3.359 6.96 1.921 5.547 2.934 11.84 3.04 18.88-0.214-4.8 0.426-8.425 1.921-10.88 1.492-2.453 3.2-4.265 5.119-5.44 2.24-1.28 4.801-1.973 7.681-2.08 4.265 0.107 7.491 1.095 9.68 2.96 2.185 1.867 3.761 3.975 4.721 6.32 1.171 2.775 1.759 5.815 1.759 9.12 0-4.905 0.373-9.225 1.12-12.96 0.746-3.732 1.706-6.96 2.88-9.68 1.173-2.72 2.533-4.96 4.08-6.72 1.545-1.76 3.121-3.225 4.721-4.4 3.732-2.665 8-4 12.8-4 2.985 0 5.625 0.4 7.92 1.2 2.293 0.8 4.24 1.815 5.84 3.04 1.601 1.227 2.96 2.615 4.08 4.16 1.12 1.547 2 3.12 2.64 4.72 1.493 3.84 2.24 8.16 2.24 12.96-0.215 6.72-0.908 12.72-2.079 18-1.176 5.28-2.348 9.735-3.521 13.36-1.495 4.268-3.096 8-4.8 11.199-2.561 4.695-5.36 8.215-8.4 10.561-3.04 2.348-5.947 4.055-8.72 5.12-3.2 1.173-6.349 1.813-9.44 1.92-3.415 0-6.427-0.319-9.04-0.96-2.615-0.641-4.908-1.492-6.88-2.561-1.975-1.064-3.627-2.265-4.96-3.6-1.335-1.332-2.427-2.745-3.279-4.24-2.03-3.414-3.202-7.254-3.522-11.521z" clip-path="url(#SVGID_2_)" fill="none" stroke="#3f3d42" stroke-miterlimit="10" stroke-width="3"/>
	<path d="m1174.2 572.3c0.853-2.56 2.08-4.8 3.68-6.72 1.386-1.705 3.226-3.28 5.521-4.72 2.292-1.44 5.305-2.16 9.04-2.16 2.984 0 5.6 0.588 7.84 1.76 2.24 1.175 4.212 2.72 5.92 4.64 1.705 1.92 3.145 4.108 4.32 6.56 1.172 2.455 2.132 4.96 2.88 7.52 1.813 5.975 2.824 12.747 3.04 20.32 0.319 6.08 0.212 11.387-0.32 15.92-0.535 4.536-1.308 8.427-2.32 11.68-1.015 3.255-2.215 5.975-3.6 8.16-1.388 2.188-2.827 3.92-4.32 5.199-3.52 3.093-7.627 4.533-12.319 4.32-2.881 0.105-5.601-0.375-8.16-1.439-2.135-0.855-4.215-2.32-6.24-4.4-2.027-2.08-3.309-5.146-3.84-9.2-1.067 3.2-2.987 5.92-5.76 8.16-2.348 1.92-5.655 3.575-9.92 4.96-4.268 1.385-9.921 1.652-16.961 0.8-5.76-0.64-10.88-2.345-15.359-5.12-1.92-1.172-3.815-2.664-5.68-4.479-1.868-1.813-3.521-4.053-4.961-6.72-1.439-2.666-2.587-5.76-3.439-9.28-0.855-3.52-1.28-7.573-1.28-12.16-0.215-8 0.8-15.252 3.04-21.76 0.96-2.773 2.24-5.521 3.84-8.24 1.601-2.72 3.625-5.2 6.08-7.44 2.453-2.24 5.385-4.132 8.8-5.68 3.413-1.545 7.466-2.532 12.16-2.96 5.972-0.532 10.772-0.185 14.4 1.04 3.625 1.227 6.505 2.695 8.64 4.4 2.451 1.919 4.211 4.266 5.278 7.039m-7.04 25.12c-1.815 0-3.388 0.695-4.72 2.08-1.335 1.387-1.896 2.935-1.681 4.64 0.213 2.24 0.881 3.787 2 4.64 1.12 0.855 2.585 1.28 4.4 1.28 1.812 0 3.305-0.532 4.48-1.6 1.172-1.065 1.76-2.505 1.76-4.32 0-1.705-0.535-3.253-1.601-4.64-1.065-1.385-2.612-2.08-4.638-2.08" clip-path="url(#SVGID_2_)" fill="#aaa7a7"/>
	<path d="m1174.2 572.3c0.853-2.56 2.08-4.8 3.68-6.72 1.386-1.705 3.226-3.28 5.521-4.72 2.292-1.44 5.305-2.16 9.04-2.16 2.984 0 5.6 0.588 7.84 1.76 2.24 1.175 4.212 2.72 5.92 4.64 1.705 1.92 3.145 4.108 4.32 6.56 1.172 2.455 2.132 4.96 2.88 7.52 1.813 5.975 2.824 12.747 3.04 20.32 0.319 6.08 0.212 11.387-0.32 15.92-0.535 4.536-1.308 8.427-2.32 11.68-1.015 3.255-2.215 5.975-3.6 8.16-1.388 2.188-2.827 3.92-4.32 5.199-3.52 3.093-7.627 4.533-12.319 4.32-2.881 0.105-5.601-0.375-8.16-1.439-2.135-0.855-4.215-2.32-6.24-4.4-2.027-2.08-3.309-5.146-3.84-9.2-1.067 3.2-2.987 5.92-5.76 8.16-2.348 1.92-5.655 3.575-9.92 4.96-4.268 1.385-9.921 1.652-16.961 0.8-5.76-0.64-10.88-2.345-15.359-5.12-1.92-1.172-3.815-2.664-5.68-4.479-1.868-1.813-3.521-4.053-4.961-6.72-1.439-2.666-2.587-5.76-3.439-9.28-0.855-3.52-1.28-7.573-1.28-12.16-0.215-8 0.8-15.252 3.04-21.76 0.96-2.773 2.24-5.521 3.84-8.24 1.601-2.72 3.625-5.2 6.08-7.44 2.453-2.24 5.385-4.132 8.8-5.68 3.413-1.545 7.466-2.532 12.16-2.96 5.972-0.532 10.772-0.185 14.4 1.04 3.625 1.227 6.505 2.695 8.64 4.4 2.451 1.919 4.211 4.266 5.278 7.039zm-7.04 25.12c-1.815 0-3.388 0.695-4.72 2.08-1.335 1.387-1.896 2.935-1.681 4.64 0.213 2.24 0.881 3.787 2 4.64 1.12 0.855 2.585 1.28 4.4 1.28 1.812 0 3.305-0.532 4.48-1.6 1.172-1.065 1.76-2.505 1.76-4.32 0-1.705-0.535-3.253-1.601-4.64-1.065-1.385-2.612-2.08-4.638-2.08z" clip-path="url(#SVGID_2_)" fill="none" stroke="#3f3d42" stroke-miterlimit="10" stroke-width="3"/>
</g></svg>
